# xmcd CD database file
#
# Track frame offsets:
#	150
#	17083
#	37882
#	55820
#	75286
#	92780
#	112902
#	130485
#	148931
#	165717
#	183891
#	204173
#	232187
#
# Disc length: 4440 seconds
#
# Revision: 1
# Processed by: cddbd v1.5.2PL0 Copyright (c) Steve Scherf et al.
# Submitted via: CDex 1.70beta2
#
DISCID=a411560d
DTITLE=Lene Marlin - Lost in a moment
DYEAR=2005
DGENRE=Pop
TTITLE0=My lucky day
TTITLE1=All I can say
TTITLE2=How would it be
TTITLE3=Hope you're happy
TTITLE4=What if
TTITLE5=Leave my mind
TTITLE6=When you were around
TTITLE7=Never to know
TTITLE8=Eyes closed
TTITLE9=It's true
TTITLE10=Wish I could
TTITLE11=Still here
TTITLE12=data
EXTD=YEAR: 2005
EXTT0=
EXTT1=
EXTT2=
EXTT3=
EXTT4=
EXTT5=
EXTT6=
EXTT7=
EXTT8=
EXTT9=
EXTT10=
EXTT11=
EXTT12=
PLAYORDER=
